<?xml version="1.0" encoding="UTF-8"?>
<!-- Created with Inkscape (http://www.inkscape.org/) -->
<svg width="174.17mm" height="167.77mm" version="1.1" viewBox="0 0 174.17 167.77" xmlns="http://www.w3.org/2000/svg">
 <g transform="translate(-20.557 -67.25)">
  <path d="m149.73 235.02-14.406-1.6838c-18.869-41.442-3.7348-25.799 5.0514-20.814z" style="fill:#a63ea1"/>
  <path d="m140.38 212.52c-14.333-33.852-15.335-14.948-17.773-1.7306l12.722 22.544z" style="fill:#9c3ba2"/>
  <path d="m140.38 212.52-7.6239-22.638c-7.4578-2.878-18.761-15.049-10.15 20.907z" style="fill:#9c3ba2"/>
  <path d="m132.75 189.89c-2.4818-46.464-12.054-16.012-20.018-2.9934l9.8689 23.901z" style="fill:#9138a2"/>
  <path d="m132.75 189.89c35.526-24.2 21.367-22.154-5.0046-13.657-15.484-13.935-24.443-16.981-15.014 10.664z" style="fill:#9039a2"/>
  <path d="m127.75 176.23c27.752-25.972 4.3907-11.829-7.2029-6.9223-27.177-28.137-15.826-2.9672-7.811 17.586z" style="fill:#8937a3"/>
  <path d="m120.54 169.31c-9.0493-68.871-14.442-30.662-20.112-0.56127l12.301 18.148z" style="fill:#8637a4"/>
  <path d="m120.54 169.31c26.217-37.67 7.1638-30.484-20.393-14.874-3.5631 2.9096-70.114-26.241 0.28063 14.312z" style="fill:#8235a5"/>
  <path d="m127.75 176.23c16.323-2.7044 22.338-4.4543 0.74835-3.6482 20.303-45.117-0.27696-11.819-7.9513-3.274z" style="fill:#8937a3"/>
  <path d="m128.5 172.58c6.8084-8.5626 11.717-12.725 8.0448 2.9934 5.859 7.4835 33.115 32.652-8.7932 0.65481z" style="fill:#8c37a4"/>
  <path d="m132.75 189.89c13.697-28.152 10.52-24.573 3.7885-14.312l-8.7932 0.65481z" style="fill:#9039a2"/>
  <path d="m136.54 175.57c11.588-2.9233 42.214-19.179 5.1449 11.974 3.2151 4.5686 13.199 13.278-8.9335 2.3386z" style="fill:#9239a3"/>
  <path d="m141.68 187.55c30.087-19.65 49.939-31.102 3.9289 10.196l-12.862-7.8577z" style="fill:#993aa2"/>
  <path d="m141.68 187.55c16.981-23.366 31.03-41.195 9.3544 8.419l-5.4256 1.7774z" style="fill:#993aa2"/>
  <path d="m151.04 195.97c-18.19-45.821-4.8585-21.831 4.5837-6.4546 25.81-26.186 26.969-21.218 12.161 3.9289z" style="fill:#9d3ba2"/>
  <path d="m155.62 189.51c3.8434-46.318-6.8834-14.265-13.938-1.9644l9.3544 8.419z" style="fill:#9b3aa1"/>
  <path d="m150.38 182.4c0.28915-15.048-0.30693-40.679 5.2385 7.1094l-13.938-1.9644c0.078-10.214-5.1518-36.415 8.6996-5.1449z" style="fill:#9a3ba3"/>
  <path d="m150.38 182.4c23.197-31.71 0.31511-14.654-13.845-6.8287l5.1449 11.974z" style="fill:#9439a2"/>
  <path d="m136.54 175.57c-25.972-29.089-7.3991-11.876 2.6192-3.5547-4.9737-21.791-3.2155-24.078 11.225 10.383z" style="fill:#9239a3"/>
  <path d="m167.78 193.44c-9.8682-20.095-12.574-28.676 4.116-6.0804 7.2834-26.976 10.952-25.33 12.254-4.9578z" style="fill:#a33da1"/>
  <path d="m171.9 187.36c7.8416-35.848-4.1378-17.068-16.277 2.1515l12.161 3.9289z" style="fill:#a13ca2"/>
  <path d="m171.9 187.36c-1.3512-23.506-2.2724-49.797-14.78-1.029-4.3866-12.219-10.212-29.35-1.4967 3.1805z" style="fill:#9d3ba0"/>
  <path d="m157.12 186.33c32.624-57.562 1.6058-12.454-6.7352-3.9289l5.2385 7.1094z" style="fill:#9b3ba2"/>
  <path d="m171.9 187.36 0.28063-4.6772 11.974-0.28063z" style="fill-opacity:0"/>
  <path d="m157.12 186.33c3.5011-13.166 4.5655-45.501 15.061-3.6482 19.695-19.904 12.068-10.174-0.28063 4.6772z" style="fill:#a13ca0"/>
  <path d="m172.18 182.68c-6.8896-16.437-13.48-45.874-21.796-0.28063l6.7352 3.9289z" style="fill:#9c3ba2"/>
  <path d="m150.38 182.4c-22.823-27.714-11.548-21.122 6.0804-8.1384 35.518-19.176 31.745-9.8271 15.715 8.419z" style="fill:#9c3ba2"/>
  <path d="m156.46 174.26c-15.252-24.657-19.746-22.191-17.306-2.2451l11.225 10.383z" style="fill:#953aa2"/>
  <path d="m141.4 160.05c0.0413-78.385-20.902-40.359-41.253-5.6127l20.393 14.874c9.9905 1.4685 21.424 5.1012 20.86-9.2609z" style="fill:#8436a4"/>
  <path d="m156.46 174.26c24.625-22.229 43.693-38.307 17.68-4.4901 2.6398 4.6774 15.443 10.51-1.9644 12.909z" style="fill:#9f3da2"/>
  <path d="m172.18 182.68c1.807 5.913 7.3653 1.5101 11.974-0.28063 6.0757-37.152-2.5806-22.742-10.009-12.628z" style="fill:#a33da1"/>
  <path d="m184.15 182.4 2.3386-13.564c-18.638-23.81-23.144-24.145-12.348 0.93544z" style="fill:#a43ea2"/>
  <path d="m141.4 160.05c-10.14-43.833-4.1104-38.548 12.161-2.1515 44.362-5.7208 22.611 5.5874 2.8999 16.37-9.1378-2.6808-16.762-6.1182-15.061-14.219z" style="fill:#953aa3"/>
  <path d="m174.14 169.77c13.766-67.501-4.35-36.785-20.58-11.88l2.8999 16.37z" style="fill:#9a3ba3"/>
  <path d="m186.49 168.84c3.6278-26.624-1.6403-28.857-13.47-13.096-19.631-12.569-36.03-22.351 1.1225 14.032z" style="fill:#a13ca2"/>
  <path d="m174.14 169.77-20.58-11.88c-2.2336-20.336-10.703-54.702 19.457-2.1515z" style="fill:#9d3ba2"/>
  <path d="m186.49 168.84 1.8709-8.2319c-2.3424-48.339-9.8724-9.2293-15.341-4.8643z" style="fill:#a13da0"/>
  <path d="m188.36 160.61 6.361-13.657c-60.233-43.443-38.973-15.579-21.702 8.7932z" style="fill:#a13ca2"/>
  <path d="m173.02 155.74c26.53-49.458 6.3162-35.255-18.709-14.499-32.414-3.0762-92.207-13.495-0.74836 16.651z" style="fill:#953aa3"/>
  <path d="m153.56 157.89 0.74836-16.651c-22.205-27.238-43.837-53.402-12.909 18.802z" style="fill:#8e38a3"/>
  <path d="m141.4 160.05-41.253-5.6127c-5.5514-19.678-39.006-75.59 21.889-8.9803 43.609-60.426 24.063-9.8722 19.364 14.593z" style="fill:#8436a4"/>
  <path d="m122.04 145.45c-1.3029-45.202 5.2701-61.802 32.273-4.2095l-12.909 18.802z" style="fill:#8a37a3"/>
  <path d="m194.72 146.95c-45.277-45.499-52.882-39.361-40.411-5.7062l18.709 14.499z" style="fill:#993aa2"/>
  <path d="m194.72 146.95-4.0224-14.78c-60.21-46.646-30.141-0.0276-36.389 9.0738z" style="fill:#9a3ba3"/>
  <path d="m154.31 141.24c6.9192-24.807 11.27-44.667-15.154-5.2385-59.724-59.209-18.058-1.3729-17.119 9.448z" style="fill:#8535a4"/>
  <path d="m190.7 132.17 1.4032-4.9578c-65.446-34.652-29.42 6.2096-37.792 14.032z" style="fill:#953aa3"/>
  <path d="m192.11 127.21-4.6772-12.161c-80.938-28.575-31.968 12.183-33.115 26.192z" style="fill:#9439a2"/>
  <path d="m154.31 141.24c8.5713-11.115 24.831-58.109 24.883-29.466 1.4219-5.2251 0.86234-19.917 8.2319 3.2741z" style="fill:#8f38a3"/>
  <path d="m139.16 136.01c-15.656-40.787-4.961-51.853 40.037-24.228l-24.883 29.466z" style="fill:#8b38a4"/>
  <path d="m187.43 115.05-2.1515-13.938c-26.515-9.1245-28.707-5.6555-6.0804 10.664z" style="fill:#9138a2"/>
  <path d="m179.2 111.78c-62.249 6.6078-53.085-2.2599-5.0514-19.551l11.132 8.8867z" style="fill:#8d37a2"/>
  <path d="m179.2 111.78c-44.763 17.98-46.917 14.139-19.644-4.7708-21.74-16.119-35.002-28.671 14.593-14.78z" style="fill:#8a38a5"/>
  <path d="m139.16 136.01c1.0459-13.257-53.7-61.341 20.393-28.999l19.644 4.7708z" style="fill:#8836a4"/>
  <path d="m122.04 145.45c-9.1618-6.7918-63.064-23.704 8.419-12.254 20.797-24.8 35.586-40.961 8.6996 2.8063z" style="fill:#7f35a4"/>
  <path d="m130.46 133.2c-38.108 21.116 4.2707-8.019 29.092-26.192l-20.393 28.999z" style="fill:#8335a3"/>
  <path d="m174.14 92.227c-30.904-15.263-41.589-17.856-19.644 0-31.262 13.355-66.886 27.825 5.0514 14.78z" style="fill:#8335a3"/>
  <path d="m130.46 133.2c-24.836-0.60763-28.033-9.8115 24.041-40.972l5.0514 14.78z" style="fill:#8134a4"/>
  <path d="m154.5 92.227c-36.665-8.5666-93.117-19.923 16.557-7.8577l3.087 7.8577z" style="fill:#8235a5"/>
  <path d="m154.5 92.227c-99.068 13.64-32.897-3.5891-3.5547-13.938l20.112 6.0804z" style="fill:#7d35a5"/>
  <path d="m150.95 78.288-10.664-8.5125c-67.542 23.741-28.493 16.784-12.816 16.557-1.602 10.054-19.032 41.487 23.48-8.0448z" style="fill:#7332a6"/>
  <path d="m127.47 86.333c-44.306 7.6098-17.886 7.7309 27.034 5.8933l-3.5547-13.938z" style="fill:#7834a5"/>
  <path d="m127.47 86.333c-13.533-13.873-29.377-32.438 2.9934 46.866l24.041-40.972z" style="fill:#7d35a5"/>
  <path d="m127.47 86.333c-20.774-11.296-38.962-19.801-14.219 18.054-120.32-6.0029-40.932 12.719 17.212 28.812z" style="fill:#7834a5"/>
  <path d="m113.25 104.39c-26.41-19.966-65.231-53.35-3.8353 21.609l21.047 7.2029z" style="fill:#7633a6"/>
  <path d="m109.41 126c-9.8896 8.9738-26.419 19.119 12.628 19.457l8.419-12.254z" style="fill:#7d35a5"/>
  <path d="m113.25 104.39c-40.217-7.8402-47.443-13.329-8.5125-15.528-13.965-28.449 0.6574-20.262 22.731-2.5257z" style="fill:#6e31a6"/>
  <path d="m127.47 86.333c-52.322 32.916-15.625-1.3382-5.5191-15.528l18.335-1.029z" style="fill:#6e31a6"/>
  <path d="m104.73 88.859c-11.464 3.7981-62.345 30.09 17.212-18.054l5.5191 15.528z" style="fill:#6a31a6"/>
  <path d="m121.95 70.805-11.038-3.5547c-86.462 16.81-17.743 15.957-6.1739 21.609z" style="fill:#662fa6"/>
  <path d="m113.25 104.39c-129.69 3.8175-49.015-0.30367-21.141-2.4322-16.858-24.737-28.32-44.257 12.628-13.096z" style="fill:#692fa7"/>
  <path d="m109.41 126c-26.91-24.373-74.668-64.878-17.306-24.041l21.141 2.4322z" style="fill:#7031a6"/>
  <path d="m100.15 154.43c-10.757-28.275-10.606-41.74 9.2609-28.437l12.628 19.457z" style="fill:#7a34a6"/>
  <path d="m92.106 101.96c-35.68-7.3224-60.841-10.176-4.0224 21.796 7.5609 17.683 14.763 21.912 21.328 2.2451z" style="fill:#6c31a7"/>
  <path d="m88.084 123.75c-26.127 7.2125-45.083 15.142 12.067 30.683l9.2609-28.437z" style="fill:#7331a5"/>
  <path d="m104.73 88.859c-37.657-29.051-26.694-13.664-19.457-1.6838-43.684-20.007-6.48 3.8681 6.8287 14.78z" style="fill:#642ea6"/>
  <path d="m104.73 88.859 6.1739-21.609c-37.339 7.9195-47.898 14.651-25.631 19.925z" style="fill:#642ea8"/>
  <path d="m110.91 67.25-35.547 4.6772c-3.9047 27.136-18.013 85.483 9.9157 15.248z" style="fill:#5e2ca7"/>
  <path d="m75.362 71.927c-25.068 31.489-33.33 44.542-5.7998 18.335 12.577 31.66 22.133 49.865 15.715-3.087z" style="fill:#5a2ca8"/>
  <path d="m85.278 87.175 6.8287 14.78c-72.14 8.1351-69.459 2.339-22.544-11.693z" style="fill:#5f2da7"/>
  <path d="m75.362 71.927-7.4836 1.2161c-25.565 35.488-9.8241 23.891 1.6838 17.119z" style="fill:#552ba9"/>
  <path d="m69.562 90.262c-22.343 17.132-19.768 29.048 18.522 33.489l4.0224-21.796z" style="fill:#662fa6"/>
  <path d="m100.15 154.43c-37.738-41.305-31.549-20.777-14.375 15.215l14.655-0.90263z" style="fill:#7935a6"/>
  <path d="m100.15 154.43c-36.501-63.094-25.621-34.452-13.449-3.3059-32.77-41.022-16.672-10.994-0.92604 18.521z" style="fill:#7432a5"/>
  <path d="m86.702 151.13c-53.312-46.72-26.711-37.57 1.3814-27.377l12.067 30.683z" style="fill:#7132a5"/>
  <path d="m86.702 151.13c-26.351-39.112-36.156-42.766-18.124 13.229l17.198 5.2917z" style="fill:#7332a6"/>
  <path d="m68.579 164.36-4.4979-5.5562c-5.1025-45.585 5.9753-36.105 22.622-7.6729z" style="fill:#6c31a5"/>
  <path d="m64.081 158.8c-17.427-30.42-17.54-33.87 1.7198-7.1438 12.248-51.38 16.573-25.929 20.902-0.52916z" style="fill:#6b30a6"/>
  <path d="m65.8 151.66c16.55-38.785 1.4757-16.678-14.42 7.0115l12.7 0.13229z" style="fill:#662fa6"/>
  <path d="m65.8 151.66c-7.1094-25.424-13.631-39.023-17.595-1.1906l3.175 8.2021z" style="fill:#642ea6"/>
  <path d="m48.206 150.47c-52.798-67.86-2.5594-14.919-0.66145-18.653-5.4072-39.356 4.4173-17.785 18.256 19.844z" style="fill:#612ea7"/>
  <path d="m48.206 150.47-16.272-4.8948c5.2035-29.874 10.407-33.268 15.61-13.758z" style="fill:#5c2ca6"/>
  <path d="m47.544 131.81" style="fill:none;stroke-width:.26458px;stroke:#000"/>
  <path d="m47.544 131.81c23.565-14 29.363-20.148-25.532 0.52917l9.9219 13.229z" style="fill:#582ca8"/>
  <path d="m65.8 151.66c-35.617-64.178-16.115-58.087 22.283-27.906l-1.3814 27.377z" style="fill:#6c31a7"/>
  <path d="m65.933 129.83c-52.172-51.874 0.12816-16.305 22.151-6.0777l-22.283 27.906c-16.053-24.817-37.009-54.978 0.13229-21.828z" style="fill:#662fa6"/>
  <path d="m65.933 129.83c-9.7416-45.877-9.8957-63.137 3.6294-39.567l18.522 33.489z" style="fill:#642ea6"/>
  <path d="m47.544 131.81c2.2277-26.01-2.1205-67.662 22.018-41.551l-3.6294 39.567c-3.0601 16.009-10.886 8.188-18.389 1.9844z" style="fill:#5e2ca7"/>
  <path d="m47.544 131.81-25.532 0.52917-1.4552-16.14c34.949-39.664 50.743-46.214 26.988 15.61z" style="fill:#532ba8"/>
  <path d="m47.544 131.81-26.988-15.61 1.8521-14.949c16.139-14.493 26.584-10.876 25.135 30.559z" style="fill:#5029a8"/>
  <path d="m69.562 90.262c-17.545 8.727-21.509 5.5514-11.302-10.043l9.6185-7.0758z" style="fill:#532aa8"/>
  <path d="m22.409 101.25c25.292-19.909 36.821-16.465 47.153-10.992l-22.018 41.551z" style="fill:#582ca8"/>
  <path d="m69.562 90.262c-14.431 1.1719-32.573 4.684-19.901-11.233l8.599 1.1906z" style="fill:#532aaa"/>
  <path d="m49.661 79.029-27.252 22.225 47.153-10.992z" style="fill:#5029a8"/>
  <path d="m172.18 182.68 11.974-0.28063-12.254 4.9578z" style="fill:#a33da1"/>
  <path d="m141.4 160.05 15.061 14.219-17.306-2.2451c-7.0581 2.934-12.446-1.6484-18.615-2.7128z" style="fill:#8f39a2"/>
  <path d="m139.16 172.02-2.6192 3.5547-8.0448-2.9934-7.9513-3.274z" style="fill:#8e38a3"/>
  <path d="m65.933 129.83-0.13229 21.828-18.256-19.844z" style="fill:#662fa7"/>
 </g>
</svg>
